<svg viewBox="0 0 200 200" xmlns="http://www.w3.org/2000/svg">
  <path fill="#FFFF" d="M43.5,-66.3C57.5,-67.2,70.9,-57.9,73.7,-45.2C76.5,-32.4,68.8,-16.2,67.1,-1C65.4,14.2,69.7,28.5,65.9,39.6C62.2,50.7,50.3,58.7,38,61.5C25.6,64.4,12.8,62.2,-1.7,65.2C-16.3,68.2,-32.6,76.5,-44.7,73.4C-56.8,70.4,-64.6,56.1,-65.9,42C-67.2,27.9,-62.1,13.9,-61.3,0.5C-60.5,-13,-64,-26,-59.2,-34.1C-54.4,-42.2,-41.2,-45.4,-29.9,-46C-18.7,-46.7,-9.3,-45,2.7,-49.6C14.7,-54.3,29.4,-65.4,43.5,-66.3Z" transform="translate(100 100)" />
</svg>